<svg width="36" height="36" viewBox="0 0 36 36" fill="none" xmlns="http://www.w3.org/2000/svg">
<path d="M18 9.75C18.9946 9.75 19.9484 10.1451 20.6517 10.8483C21.3549 11.5516 21.75 12.5054 21.75 13.5C21.75 13.9925 21.653 14.4801 21.4645 14.9351C21.2761 15.39 20.9999 15.8034 20.6517 16.1517C20.3034 16.4999 19.89 16.7761 19.4351 16.9645C18.9801 17.153 18.4925 17.25 18 17.25C17.0054 17.25 16.0516 16.8549 15.3483 16.1517C14.6451 15.4484 14.25 14.4946 14.25 13.5C14.25 12.5054 14.6451 11.5516 15.3483 10.8483C16.0516 10.1451 17.0054 9.75 18 9.75ZM18 3C20.7848 3 23.4555 4.10625 25.4246 6.07538C27.3938 8.04451 28.5 10.7152 28.5 13.5C28.5 21.375 18 33 18 33C18 33 7.5 21.375 7.5 13.5C7.5 10.7152 8.60625 8.04451 10.5754 6.07538C12.5445 4.10625 15.2152 3 18 3ZM18 6C16.0109 6 14.1032 6.79018 12.6967 8.1967C11.2902 9.60322 10.5 11.5109 10.5 13.5C10.5 15 10.5 18 18 28.065C25.5 18 25.5 15 25.5 13.5C25.5 11.5109 24.7098 9.60322 23.3033 8.1967C21.8968 6.79018 19.9891 6 18 6Z" fill="#EFEFEF"/>
</svg>
