<svg width="29" height="30" viewBox="0 0 29 30" fill="none" xmlns="http://www.w3.org/2000/svg">
<path d="M20.25 29.0414C9.08437 29.0414 0 19.957 0 8.79136C0.00422206 6.87613 0.703791 5.0276 1.96864 3.58944C3.23349 2.15129 4.97755 1.22138 6.87656 0.972612C7.36066 0.918937 7.84927 1.02086 8.27153 1.2636C8.6938 1.50634 9.02776 1.87727 9.225 2.32261L12.0516 8.91793C12.1982 9.26026 12.257 9.6338 12.2226 10.0046C12.1882 10.3755 12.0617 10.7318 11.8547 11.0414L9.52031 14.6132C10.5774 16.7585 12.3191 18.4903 14.4703 19.5351L18 17.1867C18.3092 16.9782 18.6665 16.8521 19.038 16.8201C19.4096 16.7881 19.7831 16.8513 20.1234 17.0039L26.7188 19.8164C27.1641 20.0136 27.535 20.3476 27.7778 20.7698C28.0205 21.1921 28.1224 21.6807 28.0688 22.1648C27.82 24.0638 26.8901 25.8079 25.4519 27.0727C24.0138 28.3376 22.1652 29.0371 20.25 29.0414ZM7.15781 3.20855C5.80071 3.383 4.55373 4.04613 3.65034 5.07377C2.74694 6.10141 2.24909 7.42309 2.25 8.79136C2.25372 13.5641 4.15134 18.1403 7.52619 21.5152C10.901 24.89 15.4772 26.7876 20.25 26.7914C21.6183 26.7923 22.94 26.2944 23.9676 25.391C24.9952 24.4876 25.6584 23.2407 25.8328 21.8836L19.2375 19.0711L15.7219 21.4195C15.3984 21.6333 15.0251 21.76 14.6383 21.7871C14.2515 21.8142 13.8642 21.7408 13.5141 21.5742C10.8941 20.3068 8.7749 18.1975 7.49531 15.5835C7.3266 15.2346 7.2509 14.848 7.27554 14.4612C7.30017 14.0744 7.42432 13.7005 7.63594 13.3757L9.98438 9.80386L7.15781 3.20855Z" fill="#EFEFEF"/>
</svg>
