<svg width="31" height="26" viewBox="0 0 31 26" fill="none" xmlns="http://www.w3.org/2000/svg">
<path d="M31 3.45936C29.8604 3.96206 28.6339 4.30114 27.3471 4.45289C28.661 3.6723 29.6685 2.43585 30.1436 0.960858C28.9146 1.68462 27.5541 2.2098 26.1049 2.49331C24.9451 1.26685 23.292 0.5 21.4627 0.5C17.9507 0.5 15.1032 3.32572 15.1032 6.81151C15.1032 7.30547 15.1592 7.78693 15.2681 8.24966C9.9822 7.98614 5.29535 5.4739 2.15842 1.65527C1.61095 2.58698 1.29757 3.67105 1.29757 4.82882C1.29757 7.01821 2.42019 8.95032 4.12679 10.0819C3.08471 10.0488 2.10367 9.76463 1.24597 9.2919C1.24534 9.31813 1.24534 9.34498 1.24534 9.37183C1.24534 12.4292 3.43773 14.9796 6.3475 15.5603C5.81388 15.704 5.25193 15.7814 4.67174 15.7814C4.26145 15.7814 3.86312 15.742 3.47486 15.6677C4.28474 18.175 6.63319 20.0003 9.41585 20.0509C7.23919 21.7438 4.49743 22.753 1.51718 22.753C1.00432 22.753 0.497757 22.723 0 22.6643C2.81538 24.4559 6.15809 25.5 9.74937 25.5C21.4482 25.5 27.8448 15.8832 27.8448 7.54276C27.8448 7.26925 27.8391 6.99635 27.8272 6.72533C29.0694 5.83734 30.148 4.72516 31 3.45936Z" fill="#EFEFEF"/>
</svg>
